<svg width="144" height="32" viewBox="0 0 144 32" fill="none" xmlns="http://www.w3.org/2000/svg">
<path fill-rule="evenodd" clip-rule="evenodd" d="M12.1035 18.769L1.55176 13.5382V8.92285L16.4483 16.3075V21.2305L1.55176 28.6152V23.9998L12.1035 18.769Z" fill="black"/>
<path fill-rule="evenodd" clip-rule="evenodd" d="M36.5652 9.84619L40.1593 20.7446L43.3927 9.84619H47.7376L42.472 27.6923H38.088L34.3834 16.4616L30.6789 27.6923H26.2949L21.0293 9.84619H25.3741L28.6076 20.7446L32.2017 9.84619H36.5652Z" fill="black"/>
<path fill-rule="evenodd" clip-rule="evenodd" d="M51.7757 20.0002C52.1809 22.4463 54.1509 24.0002 56.523 24.0002C58.2468 24.0002 59.453 23.0156 60.304 21.5356L64.9641 22.1848C64.9641 22.1848 63.4368 28.3079 56.4825 28.3079C51.4951 28.3079 47.4834 24.034 47.4834 18.7694C47.4834 13.5048 51.5325 9.23096 56.523 9.23096C59.2598 9.23096 61.9 10.6863 63.5302 12.8402C65.7309 15.7448 64.9392 20.0002 64.9392 20.0002H51.7757ZM60.9244 16.6156H52.1216C52.1216 16.6156 52.7232 13.231 56.523 13.231C60.3227 13.231 60.9244 16.6156 60.9244 16.6156Z" fill="black"/>
<path fill-rule="evenodd" clip-rule="evenodd" d="M94.159 9.23096C99.2989 9.23096 103.469 13.5079 103.469 18.7694C103.469 24.034 99.2989 28.3079 94.159 28.3079C89.0222 28.3079 84.8486 24.034 84.8486 18.7694C84.8486 13.5079 89.0222 9.23096 94.159 9.23096ZM94.159 13.3848C96.9938 13.3848 99.2957 15.8002 99.2957 18.7694C99.2957 21.7417 96.9938 24.154 94.159 24.154C91.3241 24.154 89.0222 21.7417 89.0222 18.7694C89.0222 15.8002 91.3241 13.3848 94.159 13.3848Z" fill="black"/>
<path fill-rule="evenodd" clip-rule="evenodd" d="M83.9194 22.2739C82.6019 25.8062 79.3457 28.3079 75.5433 28.3079C70.5765 28.3079 66.54 24.034 66.54 18.7694C66.54 13.5079 70.5765 9.23096 75.5433 9.23096C79.3457 9.23096 82.6019 11.7355 83.9194 15.2678L79.7389 15.8863C78.8565 14.3817 77.308 13.3848 75.5433 13.3848C72.8033 13.3848 70.5765 15.8002 70.5765 18.7694C70.5765 21.7417 72.8033 24.154 75.5433 24.154C77.308 24.154 78.8565 23.1571 79.7389 21.6555L83.9194 22.2739Z" fill="black"/>
<path fill-rule="evenodd" clip-rule="evenodd" d="M119.3 10.5999V2.76904H123.644V27.9998H119.3V26.9382C117.85 27.809 116.15 28.3075 114.334 28.3075C109.024 28.3075 104.713 24.0337 104.713 18.769C104.713 13.5044 109.024 9.23058 114.334 9.23058C116.15 9.23058 117.85 9.7291 119.3 10.5999ZM114.334 13.5383C117.245 13.5383 119.61 15.8829 119.61 18.769C119.61 21.6552 117.245 23.9998 114.334 23.9998C111.423 23.9998 109.058 21.6552 109.058 18.769C109.058 15.8829 111.423 13.5383 114.334 13.5383Z" fill="black"/>
<path fill-rule="evenodd" clip-rule="evenodd" d="M129.489 20.0002C129.894 22.4463 131.864 24.0002 134.236 24.0002C135.96 24.0002 137.166 23.0156 138.017 21.5356L142.677 22.1848C142.677 22.1848 141.15 28.3079 134.195 28.3079C129.208 28.3079 125.196 24.034 125.196 18.7694C125.196 13.5048 129.245 9.23096 134.236 9.23096C136.973 9.23096 139.613 10.6863 141.243 12.8402C143.444 15.7448 142.652 20.0002 142.652 20.0002H129.489ZM138.637 16.6156H129.835C129.835 16.6156 130.436 13.231 134.236 13.231C138.036 13.231 138.637 16.6156 138.637 16.6156Z" fill="black"/>
</svg>
