<svg width="118" height="144" viewBox="0 0 118 144" fill="none" xmlns="http://www.w3.org/2000/svg">
<g clip-path="url(#clip0_27_2943)">
<path fill-rule="evenodd" clip-rule="evenodd" d="M2.38574 93.9765V119.044L20.0628 140.992L115.566 95.8986V70.8298L97.9021 48.8819L2.38574 3.78857V29.245L20.0628 50.804L56.5635 68.3488L2.38574 93.9765Z" fill="white"/>
<path fill-rule="evenodd" clip-rule="evenodd" d="M2.39062 28.856L19.9294 50.8665L57.0661 68.3481L71.3374 61.2092L2.39062 28.856Z" fill="#BFBFBF"/>
<path fill-rule="evenodd" clip-rule="evenodd" d="M97.7598 48.0981L97.8954 73.7455L115.766 95.4603L115.943 70.1739L97.7598 48.0981Z" fill="#CCCCCC"/>
<path fill-rule="evenodd" clip-rule="evenodd" d="M19.9613 140.356L26.4635 107.741L27.1364 107.425L20.5736 140.352L20.1283 140.56L19.9613 140.356ZM23.3819 139.036L22.7089 139.351L29.2718 106.423L29.9448 106.107L23.3819 139.036ZM18.4028 138.467L17.912 137.871L23.6551 109.059L24.3281 108.743L18.4028 138.467ZM26.1852 137.72L25.5122 138.035L32.0801 105.105L32.748 104.789L26.1852 137.72ZM28.9935 136.403L28.3205 136.719L34.8834 103.787L35.5564 103.471L28.9935 136.403ZM16.3551 135.981L15.8642 135.386L20.8468 110.377L21.5198 110.061L16.3551 135.981ZM31.8018 135.087L31.1288 135.403L37.6917 102.469L38.3647 102.153L31.8018 135.087ZM34.6051 133.771L33.9321 134.086L40.5 101.15L41.173 100.835L34.6051 133.771ZM14.3057 133.496L13.8149 132.9L18.0435 111.695L18.7166 111.38L14.3057 133.496ZM37.4134 132.455L36.7404 132.77L43.3083 99.8326L43.9813 99.5167L37.4134 132.455ZM40.2217 131.139L39.5487 131.454L46.1116 98.5144L46.7845 98.1985L40.2217 131.139ZM12.2569 131.01L11.7661 130.415L15.2347 113.013L15.9072 112.697L12.2569 131.01ZM43.0249 129.822L42.357 130.138L48.9199 97.1962L49.5929 96.8808L43.0249 129.822ZM45.8333 128.506L45.1603 128.821L51.7282 95.878L52.4012 95.5626L45.8333 128.506ZM10.2076 128.525L9.71678 127.929L12.4275 114.331L13.0999 114.016L10.2076 128.525ZM48.6416 127.19L47.9686 127.505L54.5365 94.5603L55.2095 94.2444L48.6416 127.19ZM51.4499 125.874L50.7769 126.189L57.3448 93.2421L58.0128 92.9261L51.4499 125.874ZM8.15879 126.04L7.66796 125.444L9.62012 115.65L10.2926 115.334L8.15879 126.04ZM54.2532 124.557L53.5802 124.873L60.1481 91.9238L60.8211 91.6084L54.2532 124.557ZM57.0615 123.241L56.3885 123.556L62.9564 90.6056L63.6294 90.2902L57.0615 123.241ZM6.10948 123.554L5.61864 122.959L6.81284 116.967L7.48532 116.652L6.10948 123.554ZM59.8698 121.925L59.1968 122.24L65.7648 89.2879L66.4377 88.972L59.8698 121.925ZM4.06066 121.069L3.56982 120.474L4.00551 118.286L4.67799 117.97L4.06066 121.069ZM62.6731 120.609L62.0052 120.924L68.5731 87.9697L69.2461 87.6538L62.6731 120.609ZM65.4814 119.292L64.8084 119.608L71.3763 86.6515L72.0493 86.3356L65.4814 119.292ZM68.2897 117.976L67.6167 118.292L74.1846 85.3333L74.8577 85.0179L68.2897 117.976ZM71.098 116.66L70.425 116.976L76.993 84.0156L77.666 83.6996L71.098 116.66ZM73.9013 115.344L73.2283 115.659L79.8013 82.6973L80.4743 82.3814L73.9013 115.344ZM76.7096 114.028L76.0366 114.343L82.6096 81.3791L83.2826 81.0637L76.7096 114.028ZM79.5179 112.712L78.845 113.027L85.4129 80.0609L86.0858 79.7455L79.5179 112.712ZM82.3212 111.395L81.6482 111.711L88.2212 78.7432L88.8942 78.4273L82.3212 111.395ZM85.1295 110.079L84.4565 110.395L91.0295 77.425L91.7025 77.1091L85.1295 110.079ZM87.9378 108.763L87.2648 109.078L93.8378 76.1068L94.5108 75.7908L87.9378 108.763ZM90.7411 107.447L90.0731 107.762L96.6411 74.7886L97.3141 74.4731L90.7411 107.447ZM99.5 76.2856L93.5494 106.131L92.8764 106.446L99.0092 75.692L99.5 76.2856ZM101.549 78.7621L96.3577 104.815L95.6847 105.129L101.059 78.1689L101.549 78.7621ZM103.599 81.239L99.166 103.498L98.4931 103.813L103.108 80.6454L103.599 81.239ZM105.653 83.7154L101.969 102.182L101.296 102.497L105.162 83.1223L105.653 83.7154ZM107.702 86.1924L104.778 100.865L104.105 101.181L107.211 85.5987L107.702 86.1924ZM109.752 88.6688L107.586 99.5493L106.913 99.8647L109.261 88.0757L109.752 88.6688ZM111.806 91.1458L110.389 98.2331L109.721 98.5486L111.315 90.5521L111.806 91.1458ZM113.855 93.6222L113.198 96.917L112.525 97.2324L113.365 93.0291L113.855 93.6222Z" fill="black"/>
<path fill-rule="evenodd" clip-rule="evenodd" d="M1.3748 91.7977L0.000976562 92.4474V119.898L19.3799 143.972L117.954 97.4293V69.9776L99.4094 46.9375L0.000976562 0.000976562V30.1105L18.5501 52.748L50.9849 68.3317L1.3748 91.7977ZM113.76 95.4211L97.6435 75.3997L4.2818 119.482L20.397 139.503L113.76 95.4211ZM3.58654 28.0912L71.8475 60.3164V62.4958L3.58654 94.8204V117.151L96.7023 73.1857V49.6474L3.58654 5.682V28.0912ZM99.0907 52.2787V73.3758L114.367 92.3541V71.2576L99.0907 52.2787ZM20.8119 49.8328L56.6268 67.042L68.5281 61.4079L6.17575 31.9725L20.8119 49.8328Z" fill="black"/>
</g>
<defs>
<clipPath id="clip0_27_2943">
<rect width="118" height="144" fill="white"/>
</clipPath>
</defs>
</svg>
